<svg width="46" height="47" viewBox="0 0 46 47" fill="none" xmlns="http://www.w3.org/2000/svg">
<path d="M15.1993 46.9907C13.6661 46.9907 0.0475423 47.0157 0 46.9838C0.0829692 46.8457 0.103265 46.6382 0.150536 46.4791L3.14969 36.4043L8.17573 20.7822C8.60572 19.4157 8.89152 18.8173 8.88906 17.3894L8.89359 7.69264C9.07286 3.85444 12.2681 0.556135 16.0178 0.0619404C18.4518 -0.258834 21.3583 0.679307 23.0157 2.57404C24.5877 1.04644 26.2505 0.178806 28.4103 0.0153173C28.8066 0.0147808 29.2042 0.00479634 29.5995 0.0413568C33.4794 0.400249 36.573 3.44173 37.0694 7.32245C37.1249 7.75636 37.1034 8.21147 37.1038 8.64839L37.1013 17.4823C37.1013 17.8406 37.0484 18.3376 37.165 18.6739L46 46.9804L15.1993 46.9907ZM28.6539 5.03762C26.558 5.20328 25.5441 6.67577 25.5384 8.65009L25.5382 14.2292C25.5326 17.1654 21.6386 18.0172 20.5644 15.2413L20.5129 15.1021C20.4184 14.8437 20.4262 14.573 20.4253 14.3018L20.428 8.43458C20.4272 8.19368 20.4424 7.91391 20.3875 7.68008C19.9229 5.70157 17.8726 4.52376 15.9571 5.22644C14.1143 5.90269 13.9375 7.48144 13.9379 9.13752L13.9405 18.0768C13.9411 18.4496 13.9787 18.8646 13.8465 19.2195L12.1768 24.6515L10.0082 31.1218L6.78027 41.6134C6.74726 41.7337 6.73911 41.867 6.67866 41.9763L13.9828 41.9858L16.9447 36.5996L22.5541 25.9362C22.6834 25.6913 22.8024 25.4284 22.9982 25.2296C23.3308 25.6047 23.5505 26.0948 23.7915 26.5337L31.4753 41.4462C31.5609 41.615 31.6116 41.8399 31.7207 41.9846L39.3733 41.9346C39.31 41.8335 39.2911 41.6756 39.2527 41.56L34.9947 28.05L32.2615 19.7461C32.0423 19.0875 32.0556 18.8132 32.0551 18.1201L32.0556 8.80973C32.0556 8.28567 32.0575 7.81812 31.9259 7.30675C31.5492 5.84237 30.1003 4.95885 28.6539 5.03762Z" fill="white"/>
</svg>
