<svg id="Capa_1" data-name="Capa 1" xmlns="http://www.w3.org/2000/svg" viewBox="0 0 800 800"><title>menuArtboard 1</title><path d="M735.38,113.63a221.53,221.53,0,0,0-313.25.17l-21.87,21.88L378,113.46A221.25,221.25,0,0,0,0,269.83C0,329,23.24,384.48,65.13,426.37l318.5,318.51a22.74,22.74,0,0,0,32.23.17L735,427.05a221.92,221.92,0,0,0,.34-313.42Zm-32.56,281L399.75,696.54,97.35,394.15A175.57,175.57,0,1,1,345.64,145.86L384,184.19a22.85,22.85,0,0,0,32.4,0l38-38A175.69,175.69,0,0,1,702.82,394.66Z"/></svg>