<svg width="28" height="28" viewBox="0 0 28 28" fill="none" xmlns="http://www.w3.org/2000/svg">
<path d="M27.2122 23.4028L19.016 15.2065C21.2251 11.3231 20.6762 6.28454 17.3676 2.97588C13.3997 -0.991959 6.94362 -0.991959 2.97585 2.97588C-0.991915 6.94372 -0.991986 13.3998 2.97585 17.3676C6.28444 20.6762 11.323 21.2252 15.2065 19.016L23.4027 27.2123C24.453 28.2626 26.162 28.2625 27.2122 27.2123C28.2626 26.1621 28.2626 24.4531 27.2122 23.4028ZM15.3405 15.3406C12.4904 18.1908 7.85298 18.1908 5.00277 15.3406C2.15263 12.4905 2.15263 7.85301 5.00277 5.00287C7.85298 2.15273 12.4904 2.15273 15.3405 5.00287C18.1907 7.85301 18.1907 12.4906 15.3405 15.3406Z" fill="black"/>
</svg>
