<svg width="512" height="512" viewBox="0 0 512 512" fill="none" xmlns="http://www.w3.org/2000/svg">
<g clip-path="url(#clip0_4_4)">
<path d="M0 0L0 512H512V0L0 0Z" fill="#EDF6F9"/>
<path d="M44.5938 121.585C40.7747 121.585 6.8519 121.647 6.73347 121.568C6.94015 121.228 6.9907 120.716 7.10845 120.324L14.5791 95.5002L27.0985 57.008C28.1698 53.641 28.8815 52.1665 28.8755 48.6485L28.8867 24.7557C29.3332 15.2987 37.2925 7.17181 46.6328 5.95416C52.6955 5.16379 59.9353 7.47531 64.0637 12.1439C67.9795 8.37992 72.1213 6.24209 77.5012 5.83927C78.4885 5.83797 79.479 5.81337 80.4635 5.90344C90.1282 6.78772 97.834 14.2819 99.0705 23.8438C99.2087 24.9129 99.1552 26.0343 99.156 27.1107L99.15 48.8772C99.15 49.76 99.018 50.9845 99.3088 51.8132L121.316 121.559L44.5938 121.585ZM78.108 18.2141C72.8875 18.6221 70.362 22.2504 70.3478 27.115L70.3473 40.8618C70.3333 48.0962 60.6335 50.1953 57.958 43.3555L57.8295 43.0125C57.5943 42.3757 57.6135 41.709 57.6112 41.0405L57.618 26.584C57.6163 25.9905 57.6538 25.3012 57.517 24.725C56.36 19.85 51.2527 16.9478 46.4815 18.6795C41.891 20.3456 41.4507 24.2354 41.4517 28.316L41.458 50.342C41.4597 51.2608 41.5532 52.2833 41.224 53.1578L37.0647 66.542L31.663 82.4845L23.6227 108.335C23.5404 108.632 23.52 108.96 23.3696 109.23L41.5635 109.253L48.9415 95.9818L62.9143 69.7075C63.2362 69.104 63.5325 68.4562 64.0203 67.9665C64.8485 68.8905 65.396 70.0982 65.9965 71.1797L85.136 107.923C85.3492 108.339 85.4755 108.894 85.7475 109.25L104.809 109.127C104.652 108.878 104.605 108.489 104.509 108.204L93.9027 74.9158L87.0945 54.455C86.5482 52.8325 86.5815 52.1565 86.5803 50.4487L86.5815 27.5083C86.5815 26.217 86.5863 25.0652 86.2585 23.8051C85.3203 20.197 81.711 18.0199 78.108 18.2141Z" fill="#006D77"/>
<path d="M211.406 6.415C215.225 6.41525 249.148 6.3535 249.267 6.43225C249.06 6.77225 249.009 7.28375 248.892 7.67575L241.421 32.4998L228.901 70.992C227.83 74.359 227.118 75.8335 227.125 79.3515L227.113 103.244C226.667 112.701 218.707 120.828 209.367 122.046C203.305 122.836 196.065 120.525 191.936 115.856C188.02 119.62 183.879 121.758 178.499 122.161C177.512 122.162 176.521 122.187 175.536 122.097C165.872 121.212 158.166 113.718 156.929 104.156C156.791 103.087 156.845 101.966 156.844 100.889L156.85 79.1227C156.85 78.24 156.982 77.0155 156.691 76.1868L134.684 6.44075L211.406 6.415ZM177.892 109.786C183.113 109.378 185.638 105.75 185.652 100.885L185.653 87.1382C185.667 79.9038 195.367 77.8047 198.042 84.6445L198.171 84.9875C198.406 85.6243 198.387 86.291 198.389 86.9595L198.382 101.416C198.384 102.01 198.346 102.699 198.483 103.275C199.64 108.15 204.747 111.052 209.519 109.321C214.109 107.654 214.549 103.765 214.548 99.684L214.542 77.658C214.54 76.7392 214.447 75.7167 214.776 74.8423L218.935 61.458L224.337 45.5155L232.377 19.6647C232.46 19.3683 232.48 19.0397 232.63 18.7705L214.436 18.747L207.058 32.0182L193.086 58.2925C192.764 58.896 192.468 59.5438 191.98 60.0335C191.151 59.1095 190.604 57.9018 190.004 56.8203L170.864 20.0768C170.651 19.6607 170.524 19.1065 170.252 18.75L151.19 18.873C151.348 19.1222 151.395 19.5115 151.491 19.7963L162.097 53.0842L168.906 73.545C169.452 75.1675 169.418 75.8435 169.42 77.5513L169.418 100.492C169.418 101.783 169.414 102.935 169.742 104.195C170.68 107.803 174.289 109.98 177.892 109.786Z" fill="#83C5BE"/>
<path d="M300.594 121.585C296.775 121.585 262.852 121.647 262.733 121.568C262.94 121.228 262.991 120.716 263.108 120.324L270.579 95.5002L283.099 57.008C284.17 53.641 284.882 52.1665 284.875 48.6485L284.887 24.7557C285.333 15.2987 293.293 7.17181 302.633 5.95416C308.695 5.16379 315.935 7.47531 320.064 12.1439C323.98 8.37992 328.121 6.24209 333.501 5.83927C334.488 5.83797 335.479 5.81337 336.464 5.90344C346.128 6.78772 353.834 14.2819 355.07 23.8438C355.209 24.9129 355.155 26.0343 355.156 27.1107L355.15 48.8772C355.15 49.76 355.018 50.9845 355.309 51.8132L377.316 121.559L300.594 121.585ZM334.108 18.2141C328.887 18.6221 326.362 22.2504 326.348 27.115L326.347 40.8618C326.333 48.0962 316.634 50.1953 313.958 43.3555L313.829 43.0125C313.594 42.3757 313.613 41.709 313.611 41.0405L313.618 26.584C313.616 25.9905 313.654 25.3012 313.517 24.725C312.36 19.85 307.253 16.9478 302.481 18.6795C297.891 20.3456 297.451 24.2354 297.452 28.316L297.458 50.342C297.46 51.2608 297.553 52.2833 297.224 53.1578L293.065 66.542L287.663 82.4845L279.623 108.335C279.54 108.632 279.52 108.96 279.37 109.23L297.563 109.253L304.942 95.9818L318.914 69.7075C319.236 69.104 319.533 68.4562 320.02 67.9665C320.849 68.8905 321.396 70.0982 321.996 71.1797L341.136 107.923C341.349 108.339 341.476 108.894 341.748 109.25L360.809 109.127C360.652 108.878 360.605 108.489 360.509 108.204L349.903 74.9158L343.094 54.455C342.548 52.8325 342.582 52.1565 342.58 50.4487L342.582 27.5083C342.582 26.217 342.586 25.0652 342.259 23.8051C341.32 20.197 337.711 18.0199 334.108 18.2141Z" fill="#006D77"/>
<path d="M467.406 6.415C471.225 6.41525 505.148 6.3535 505.267 6.43225C505.06 6.77225 505.009 7.28375 504.892 7.67575L497.421 32.4998L484.901 70.992C483.83 74.359 483.118 75.8335 483.125 79.3515L483.113 103.244C482.667 112.701 474.707 120.828 465.367 122.046C459.305 122.836 452.065 120.525 447.936 115.856C444.02 119.62 439.879 121.758 434.499 122.161C433.512 122.162 432.521 122.187 431.536 122.097C421.872 121.212 414.166 113.718 412.93 104.156C412.791 103.087 412.845 101.966 412.844 100.889L412.85 79.1227C412.85 78.24 412.982 77.0155 412.691 76.1868L390.684 6.44075L467.406 6.415ZM433.892 109.786C439.113 109.378 441.638 105.75 441.652 100.885L441.653 87.1382C441.667 79.9038 451.366 77.8047 454.042 84.6445L454.171 84.9875C454.406 85.6243 454.387 86.291 454.389 86.9595L454.382 101.416C454.384 102.01 454.346 102.699 454.483 103.275C455.64 108.15 460.747 111.052 465.519 109.321C470.109 107.654 470.549 103.765 470.548 99.684L470.542 77.658C470.54 76.7392 470.447 75.7167 470.776 74.8423L474.935 61.458L480.337 45.5155L488.377 19.6647C488.46 19.3683 488.48 19.0397 488.63 18.7705L470.437 18.747L463.058 32.0182L449.086 58.2925C448.764 58.896 448.467 59.5438 447.98 60.0335C447.151 59.1095 446.604 57.9018 446.004 56.8203L426.864 20.0768C426.651 19.6607 426.524 19.1065 426.252 18.75L407.19 18.873C407.348 19.1222 407.395 19.5115 407.491 19.7963L418.097 53.0842L424.906 73.545C425.452 75.1675 425.418 75.8435 425.42 77.5513L425.418 100.492C425.418 101.783 425.414 102.935 425.741 104.195C426.68 107.803 430.289 109.98 433.892 109.786Z" fill="#83C5BE"/>
<path d="M19.4062 134.415C23.2253 134.415 57.148 134.353 57.267 134.432C57.06 134.772 57.009 135.284 56.892 135.676L49.421 160.5L36.901 198.992C35.8303 202.359 35.1185 203.834 35.1245 207.351L35.1132 231.244C34.6668 240.701 26.7075 248.828 17.3672 250.046C11.3045 250.836 4.0648 248.525 -0.0637016 243.856C-3.9795 247.62 -8.1213 249.758 -13.5012 250.161C-14.4885 250.162 -15.479 250.187 -16.4635 250.097C-26.1282 249.212 -33.834 241.718 -35.0705 232.156C-35.2087 231.087 -35.1552 229.966 -35.156 228.889L-35.15 207.123C-35.15 206.24 -35.018 205.016 -35.3088 204.187L-57.316 134.441L19.4062 134.415ZM-14.108 237.786C-8.8875 237.378 -6.362 233.75 -6.3478 228.885L-6.3473 215.138C-6.3333 207.904 3.3665 205.805 6.042 212.644L6.1705 212.988C6.4057 213.624 6.3865 214.291 6.3888 214.959L6.382 229.416C6.3837 230.01 6.3462 230.699 6.483 231.275C7.64 236.15 12.7473 239.052 17.5185 237.321C22.109 235.654 22.5493 231.765 22.5482 227.684L22.542 205.658C22.5403 204.739 22.4468 203.717 22.776 202.842L26.9352 189.458L32.337 173.516L40.377 147.665C40.46 147.368 40.48 147.04 40.63 146.77L22.4365 146.747L15.0585 160.018L1.0857 186.292C0.763802 186.896 0.467499 187.544 -0.0203018 188.034C-0.848503 187.109 -1.396 185.902 -1.9965 184.82L-21.136 148.077C-21.3492 147.661 -21.4755 147.107 -21.7475 146.75L-40.8095 146.873C-40.6518 147.122 -40.6047 147.512 -40.509 147.796L-29.9027 181.084L-23.0945 201.545C-22.5482 203.168 -22.5815 203.844 -22.5803 205.551L-22.5815 228.492C-22.5815 229.783 -22.5863 230.935 -22.2585 232.195C-21.3203 235.803 -17.711 237.98 -14.108 237.786Z" fill="#83C5BE"/>
<path d="M108.594 249.585C104.775 249.585 70.8519 249.647 70.7335 249.568C70.9402 249.228 70.9907 248.716 71.1085 248.324L78.5791 223.5L91.0985 185.008C92.1698 181.641 92.8815 180.166 92.8755 176.649L92.8867 152.756C93.3332 143.299 101.292 135.172 110.633 133.954C116.696 133.164 123.935 135.475 128.064 140.144C131.98 136.38 136.121 134.242 141.501 133.839C142.488 133.838 143.479 133.813 144.464 133.903C154.128 134.788 161.834 142.282 163.07 151.844C163.209 152.913 163.155 154.034 163.156 155.111L163.15 176.877C163.15 177.76 163.018 178.984 163.309 179.813L185.316 249.559L108.594 249.585ZM142.108 146.214C136.887 146.622 134.362 150.25 134.348 155.115L134.347 168.862C134.333 176.096 124.633 178.195 121.958 171.356L121.829 171.012C121.594 170.376 121.614 169.709 121.611 169.041L121.618 154.584C121.616 153.99 121.654 153.301 121.517 152.725C120.36 147.85 115.253 144.948 110.481 146.679C105.891 148.346 105.451 152.235 105.452 156.316L105.458 178.342C105.46 179.261 105.553 180.283 105.224 181.158L101.065 194.542L95.663 210.484L87.6227 236.335C87.5404 236.632 87.52 236.96 87.3696 237.23L105.564 237.253L112.941 223.982L126.914 197.707C127.236 197.104 127.532 196.456 128.02 195.966C128.849 196.891 129.396 198.098 129.996 199.18L149.136 235.923C149.349 236.339 149.476 236.894 149.748 237.25L168.809 237.127C168.652 236.878 168.605 236.489 168.509 236.204L157.903 202.916L151.094 182.455C150.548 180.833 150.582 180.156 150.58 178.449L150.582 155.508C150.582 154.217 150.586 153.065 150.258 151.805C149.32 148.197 145.711 146.02 142.108 146.214Z" fill="#006D77"/>
<path d="M275.406 134.415C279.225 134.415 313.148 134.353 313.267 134.432C313.06 134.772 313.009 135.284 312.892 135.676L305.421 160.5L292.901 198.992C291.83 202.359 291.118 203.834 291.125 207.351L291.113 231.244C290.667 240.701 282.707 248.828 273.367 250.046C267.305 250.836 260.065 248.525 255.936 243.856C252.02 247.62 247.879 249.758 242.499 250.161C241.512 250.162 240.521 250.187 239.536 250.097C229.872 249.212 222.166 241.718 220.929 232.156C220.791 231.087 220.845 229.966 220.844 228.889L220.85 207.123C220.85 206.24 220.982 205.016 220.691 204.187L198.684 134.441L275.406 134.415ZM241.892 237.786C247.113 237.378 249.638 233.75 249.652 228.885L249.653 215.138C249.667 207.904 259.366 205.805 262.042 212.644L262.171 212.988C262.406 213.624 262.387 214.291 262.389 214.959L262.382 229.416C262.384 230.01 262.346 230.699 262.483 231.275C263.64 236.15 268.747 239.052 273.519 237.321C278.109 235.654 278.549 231.765 278.548 227.684L278.542 205.658C278.54 204.739 278.447 203.717 278.776 202.842L282.935 189.458L288.337 173.516L296.377 147.665C296.46 147.368 296.48 147.04 296.63 146.77L278.437 146.747L271.058 160.018L257.086 186.292C256.764 186.896 256.467 187.544 255.98 188.034C255.151 187.109 254.604 185.902 254.004 184.82L234.864 148.077C234.651 147.661 234.524 147.107 234.252 146.75L215.19 146.873C215.348 147.122 215.395 147.512 215.491 147.796L226.097 181.084L232.906 201.545C233.452 203.168 233.418 203.844 233.42 205.551L233.418 228.492C233.418 229.783 233.414 230.935 233.742 232.195C234.68 235.803 238.289 237.98 241.892 237.786Z" fill="#83C5BE"/>
<path d="M364.594 249.585C360.775 249.585 326.852 249.647 326.733 249.568C326.94 249.228 326.991 248.716 327.108 248.324L334.579 223.5L347.099 185.008C348.17 181.641 348.882 180.166 348.875 176.649L348.887 152.756C349.333 143.299 357.293 135.172 366.633 133.954C372.695 133.164 379.935 135.475 384.064 140.144C387.98 136.38 392.121 134.242 397.501 133.839C398.488 133.838 399.479 133.813 400.464 133.903C410.128 134.788 417.834 142.282 419.07 151.844C419.209 152.913 419.155 154.034 419.156 155.111L419.15 176.877C419.15 177.76 419.018 178.984 419.309 179.813L441.316 249.559L364.594 249.585ZM398.108 146.214C392.887 146.622 390.362 150.25 390.348 155.115L390.347 168.862C390.333 176.096 380.634 178.195 377.958 171.356L377.829 171.012C377.594 170.376 377.613 169.709 377.611 169.041L377.618 154.584C377.616 153.99 377.654 153.301 377.517 152.725C376.36 147.85 371.253 144.948 366.481 146.679C361.891 148.346 361.451 152.235 361.452 156.316L361.458 178.342C361.46 179.261 361.553 180.283 361.224 181.158L357.065 194.542L351.663 210.484L343.623 236.335C343.54 236.632 343.52 236.96 343.37 237.23L361.563 237.253L368.942 223.982L382.914 197.707C383.236 197.104 383.533 196.456 384.02 195.966C384.849 196.891 385.396 198.098 385.996 199.18L405.136 235.923C405.349 236.339 405.476 236.894 405.748 237.25L424.809 237.127C424.652 236.878 424.605 236.489 424.509 236.204L413.903 202.916L407.094 182.455C406.548 180.833 406.582 180.156 406.58 178.449L406.582 155.508C406.582 154.217 406.586 153.065 406.259 151.805C405.32 148.197 401.711 146.02 398.108 146.214Z" fill="#006D77"/>
<path d="M531.406 134.415C535.225 134.415 569.148 134.353 569.267 134.432C569.06 134.772 569.009 135.284 568.892 135.676L561.421 160.5L548.901 198.992C547.83 202.359 547.119 203.834 547.125 207.351L547.113 231.244C546.667 240.701 538.707 248.828 529.367 250.046C523.304 250.836 516.065 248.525 511.936 243.856C508.02 247.62 503.879 249.758 498.499 250.161C497.512 250.162 496.521 250.187 495.536 250.097C485.872 249.212 478.166 241.718 476.93 232.156C476.791 231.087 476.845 229.966 476.844 228.889L476.85 207.123C476.85 206.24 476.982 205.016 476.691 204.187L454.684 134.441L531.406 134.415ZM497.892 237.786C503.113 237.378 505.638 233.75 505.652 228.885L505.653 215.138C505.667 207.904 515.366 205.805 518.042 212.644L518.17 212.988C518.406 213.624 518.386 214.291 518.389 214.959L518.382 229.416C518.384 230.01 518.346 230.699 518.483 231.275C519.64 236.15 524.747 239.052 529.519 237.321C534.109 235.654 534.549 231.765 534.548 227.684L534.542 205.658C534.54 204.739 534.447 203.717 534.776 202.842L538.935 189.458L544.337 173.516L552.377 147.665C552.46 147.368 552.48 147.04 552.63 146.77L534.437 146.747L527.058 160.018L513.086 186.292C512.764 186.896 512.467 187.544 511.98 188.034C511.151 187.109 510.604 185.902 510.004 184.82L490.864 148.077C490.651 147.661 490.524 147.107 490.252 146.75L471.19 146.873C471.348 147.122 471.395 147.512 471.491 147.796L482.097 181.084L488.906 201.545C489.452 203.168 489.418 203.844 489.42 205.551L489.418 228.492C489.418 229.783 489.414 230.935 489.741 232.195C490.68 235.803 494.289 237.98 497.892 237.786Z" fill="#83C5BE"/>
<path d="M44.5938 377.585C40.7747 377.585 6.8519 377.647 6.73347 377.568C6.94015 377.228 6.9907 376.716 7.10845 376.324L14.5791 351.5L27.0985 313.008C28.1698 309.641 28.8815 308.166 28.8755 304.649L28.8867 280.756C29.3332 271.299 37.2925 263.172 46.6328 261.954C52.6955 261.164 59.9353 263.475 64.0637 268.144C67.9795 264.38 72.1213 262.242 77.5012 261.839C78.4885 261.838 79.479 261.813 80.4635 261.903C90.1282 262.788 97.834 270.282 99.0705 279.844C99.2087 280.913 99.1552 282.034 99.156 283.111L99.15 304.877C99.15 305.76 99.018 306.985 99.3088 307.813L121.316 377.559L44.5938 377.585ZM78.108 274.214C72.8875 274.622 70.362 278.25 70.3478 283.115L70.3473 296.862C70.3333 304.096 60.6335 306.195 57.958 299.356L57.8295 299.012C57.5943 298.376 57.6135 297.709 57.6112 297.041L57.618 282.584C57.6163 281.99 57.6538 281.301 57.517 280.725C56.36 275.85 51.2527 272.948 46.4815 274.68C41.891 276.346 41.4507 280.235 41.4517 284.316L41.458 306.342C41.4597 307.261 41.5532 308.283 41.224 309.158L37.0647 322.542L31.663 338.485L23.6227 364.335C23.5404 364.632 23.52 364.96 23.3696 365.23L41.5635 365.253L48.9415 351.982L62.9143 325.707C63.2362 325.104 63.5325 324.456 64.0203 323.966C64.8485 324.89 65.396 326.098 65.9965 327.18L85.136 363.923C85.3492 364.339 85.4755 364.894 85.7475 365.25L104.809 365.127C104.652 364.878 104.605 364.489 104.509 364.204L93.9027 330.916L87.0945 310.455C86.5482 308.832 86.5815 308.156 86.5803 306.449L86.5815 283.508C86.5815 282.217 86.5863 281.065 86.2585 279.805C85.3203 276.197 81.711 274.02 78.108 274.214Z" fill="#006D77"/>
<path d="M211.406 262.415C215.225 262.415 249.148 262.353 249.267 262.432C249.06 262.772 249.009 263.284 248.892 263.676L241.421 288.5L228.901 326.992C227.83 330.359 227.118 331.834 227.125 335.351L227.113 359.244C226.667 368.701 218.707 376.828 209.367 378.046C203.305 378.836 196.065 376.525 191.936 371.856C188.02 375.62 183.879 377.758 178.499 378.161C177.512 378.162 176.521 378.187 175.536 378.097C165.872 377.212 158.166 369.718 156.929 360.156C156.791 359.087 156.845 357.966 156.844 356.889L156.85 335.123C156.85 334.24 156.982 333.015 156.691 332.187L134.684 262.441L211.406 262.415ZM177.892 365.786C183.113 365.378 185.638 361.75 185.652 356.885L185.653 343.138C185.667 335.904 195.367 333.805 198.042 340.644L198.171 340.988C198.406 341.624 198.387 342.291 198.389 342.959L198.382 357.416C198.384 358.01 198.346 358.699 198.483 359.275C199.64 364.15 204.747 367.052 209.519 365.321C214.109 363.654 214.549 359.765 214.548 355.684L214.542 333.658C214.54 332.739 214.447 331.717 214.776 330.842L218.935 317.458L224.337 301.515L232.377 275.665C232.46 275.368 232.48 275.04 232.63 274.77L214.436 274.747L207.058 288.018L193.086 314.293C192.764 314.896 192.468 315.544 191.98 316.034C191.151 315.11 190.604 313.902 190.004 312.82L170.864 276.077C170.651 275.661 170.524 275.106 170.252 274.75L151.19 274.873C151.348 275.122 151.395 275.512 151.491 275.796L162.097 309.084L168.906 329.545C169.452 331.168 169.418 331.844 169.42 333.551L169.418 356.492C169.418 357.783 169.414 358.935 169.742 360.195C170.68 363.803 174.289 365.98 177.892 365.786Z" fill="#83C5BE"/>
<path d="M300.594 377.585C296.775 377.585 262.852 377.647 262.733 377.568C262.94 377.228 262.991 376.716 263.108 376.324L270.579 351.5L283.099 313.008C284.17 309.641 284.882 308.166 284.875 304.649L284.887 280.756C285.333 271.299 293.293 263.172 302.633 261.954C308.695 261.164 315.935 263.475 320.064 268.144C323.98 264.38 328.121 262.242 333.501 261.839C334.488 261.838 335.479 261.813 336.464 261.903C346.128 262.788 353.834 270.282 355.07 279.844C355.209 280.913 355.155 282.034 355.156 283.111L355.15 304.877C355.15 305.76 355.018 306.985 355.309 307.813L377.316 377.559L300.594 377.585ZM334.108 274.214C328.887 274.622 326.362 278.25 326.348 283.115L326.347 296.862C326.333 304.096 316.634 306.195 313.958 299.356L313.829 299.012C313.594 298.376 313.613 297.709 313.611 297.041L313.618 282.584C313.616 281.99 313.654 281.301 313.517 280.725C312.36 275.85 307.253 272.948 302.481 274.68C297.891 276.346 297.451 280.235 297.452 284.316L297.458 306.342C297.46 307.261 297.553 308.283 297.224 309.158L293.065 322.542L287.663 338.485L279.623 364.335C279.54 364.632 279.52 364.96 279.37 365.23L297.563 365.253L304.942 351.982L318.914 325.707C319.236 325.104 319.533 324.456 320.02 323.966C320.849 324.89 321.396 326.098 321.996 327.18L341.136 363.923C341.349 364.339 341.476 364.894 341.748 365.25L360.809 365.127C360.652 364.878 360.605 364.489 360.509 364.204L349.903 330.916L343.094 310.455C342.548 308.832 342.582 308.156 342.58 306.449L342.582 283.508C342.582 282.217 342.586 281.065 342.259 279.805C341.32 276.197 337.711 274.02 334.108 274.214Z" fill="#006D77"/>
<path d="M467.406 262.415C471.225 262.415 505.148 262.353 505.267 262.432C505.06 262.772 505.009 263.284 504.892 263.676L497.421 288.5L484.901 326.992C483.83 330.359 483.118 331.834 483.125 335.351L483.113 359.244C482.667 368.701 474.707 376.828 465.367 378.046C459.305 378.836 452.065 376.525 447.936 371.856C444.02 375.62 439.879 377.758 434.499 378.161C433.512 378.162 432.521 378.187 431.536 378.097C421.872 377.212 414.166 369.718 412.93 360.156C412.791 359.087 412.845 357.966 412.844 356.889L412.85 335.123C412.85 334.24 412.982 333.015 412.691 332.187L390.684 262.441L467.406 262.415ZM433.892 365.786C439.113 365.378 441.638 361.75 441.652 356.885L441.653 343.138C441.667 335.904 451.366 333.805 454.042 340.644L454.171 340.988C454.406 341.624 454.387 342.291 454.389 342.959L454.382 357.416C454.384 358.01 454.346 358.699 454.483 359.275C455.64 364.15 460.747 367.052 465.519 365.321C470.109 363.654 470.549 359.765 470.548 355.684L470.542 333.658C470.54 332.739 470.447 331.717 470.776 330.842L474.935 317.458L480.337 301.515L488.377 275.665C488.46 275.368 488.48 275.04 488.63 274.77L470.437 274.747L463.058 288.018L449.086 314.293C448.764 314.896 448.467 315.544 447.98 316.034C447.151 315.11 446.604 313.902 446.004 312.82L426.864 276.077C426.651 275.661 426.524 275.106 426.252 274.75L407.19 274.873C407.348 275.122 407.395 275.512 407.491 275.796L418.097 309.084L424.906 329.545C425.452 331.168 425.418 331.844 425.42 333.551L425.418 356.492C425.418 357.783 425.414 358.935 425.741 360.195C426.68 363.803 430.289 365.98 433.892 365.786Z" fill="#83C5BE"/>
<path d="M19.4062 390.415C23.2253 390.415 57.148 390.353 57.267 390.432C57.06 390.772 57.009 391.284 56.892 391.676L49.421 416.5L36.901 454.992C35.8303 458.359 35.1185 459.834 35.1245 463.351L35.1132 487.244C34.6668 496.701 26.7075 504.828 17.3672 506.046C11.3045 506.836 4.0648 504.525 -0.0637016 499.856C-3.9795 503.62 -8.1213 505.758 -13.5012 506.161C-14.4885 506.162 -15.479 506.187 -16.4635 506.097C-26.1282 505.212 -33.834 497.718 -35.0705 488.156C-35.2087 487.087 -35.1552 485.966 -35.156 484.889L-35.15 463.123C-35.15 462.24 -35.018 461.015 -35.3088 460.187L-57.316 390.441L19.4062 390.415ZM-14.108 493.786C-8.8875 493.378 -6.362 489.75 -6.3478 484.885L-6.3473 471.138C-6.3333 463.904 3.3665 461.805 6.042 468.644L6.1705 468.988C6.4057 469.624 6.3865 470.291 6.3888 470.959L6.382 485.416C6.3837 486.01 6.3462 486.699 6.483 487.275C7.64 492.15 12.7473 495.052 17.5185 493.321C22.109 491.654 22.5493 487.765 22.5482 483.684L22.542 461.658C22.5403 460.739 22.4468 459.717 22.776 458.842L26.9352 445.458L32.337 429.515L40.377 403.665C40.46 403.368 40.48 403.04 40.63 402.77L22.4365 402.747L15.0585 416.018L1.0857 442.293C0.763802 442.896 0.467499 443.544 -0.0203018 444.034C-0.848503 443.11 -1.396 441.902 -1.9965 440.82L-21.136 404.077C-21.3492 403.661 -21.4755 403.106 -21.7475 402.75L-40.8095 402.873C-40.6518 403.122 -40.6047 403.512 -40.509 403.796L-29.9027 437.084L-23.0945 457.545C-22.5482 459.168 -22.5815 459.844 -22.5803 461.551L-22.5815 484.492C-22.5815 485.783 -22.5863 486.935 -22.2585 488.195C-21.3203 491.803 -17.711 493.98 -14.108 493.786Z" fill="#83C5BE"/>
<path d="M108.594 505.585C104.775 505.585 70.8519 505.647 70.7335 505.568C70.9402 505.228 70.9907 504.716 71.1085 504.324L78.5791 479.5L91.0985 441.008C92.1698 437.641 92.8815 436.166 92.8755 432.649L92.8867 408.756C93.3332 399.299 101.292 391.172 110.633 389.954C116.696 389.164 123.935 391.475 128.064 396.144C131.98 392.38 136.121 390.242 141.501 389.839C142.488 389.838 143.479 389.813 144.464 389.903C154.128 390.788 161.834 398.282 163.07 407.844C163.209 408.913 163.155 410.034 163.156 411.111L163.15 432.877C163.15 433.76 163.018 434.985 163.309 435.813L185.316 505.559L108.594 505.585ZM142.108 402.214C136.887 402.622 134.362 406.25 134.348 411.115L134.347 424.862C134.333 432.096 124.633 434.195 121.958 427.356L121.829 427.012C121.594 426.376 121.614 425.709 121.611 425.041L121.618 410.584C121.616 409.99 121.654 409.301 121.517 408.725C120.36 403.85 115.253 400.948 110.481 402.68C105.891 404.346 105.451 408.235 105.452 412.316L105.458 434.342C105.46 435.261 105.553 436.283 105.224 437.158L101.065 450.542L95.663 466.485L87.6227 492.335C87.5404 492.632 87.52 492.96 87.3696 493.23L105.564 493.253L112.941 479.982L126.914 453.707C127.236 453.104 127.532 452.456 128.02 451.966C128.849 452.89 129.396 454.098 129.996 455.18L149.136 491.923C149.349 492.339 149.476 492.894 149.748 493.25L168.809 493.127C168.652 492.878 168.605 492.489 168.509 492.204L157.903 458.916L151.094 438.455C150.548 436.832 150.582 436.156 150.58 434.449L150.582 411.508C150.582 410.217 150.586 409.065 150.258 407.805C149.32 404.197 145.711 402.02 142.108 402.214Z" fill="#006D77"/>
<path d="M275.406 390.415C279.225 390.415 313.148 390.353 313.267 390.432C313.06 390.772 313.009 391.284 312.892 391.676L305.421 416.5L292.901 454.992C291.83 458.359 291.118 459.834 291.125 463.351L291.113 487.244C290.667 496.701 282.707 504.828 273.367 506.046C267.305 506.836 260.065 504.525 255.936 499.856C252.02 503.62 247.879 505.758 242.499 506.161C241.512 506.162 240.521 506.187 239.536 506.097C229.872 505.212 222.166 497.718 220.929 488.156C220.791 487.087 220.845 485.966 220.844 484.889L220.85 463.123C220.85 462.24 220.982 461.015 220.691 460.187L198.684 390.441L275.406 390.415ZM241.892 493.786C247.113 493.378 249.638 489.75 249.652 484.885L249.653 471.138C249.667 463.904 259.366 461.805 262.042 468.644L262.171 468.988C262.406 469.624 262.387 470.291 262.389 470.959L262.382 485.416C262.384 486.01 262.346 486.699 262.483 487.275C263.64 492.15 268.747 495.052 273.519 493.321C278.109 491.654 278.549 487.765 278.548 483.684L278.542 461.658C278.54 460.739 278.447 459.717 278.776 458.842L282.935 445.458L288.337 429.515L296.377 403.665C296.46 403.368 296.48 403.04 296.63 402.77L278.437 402.747L271.058 416.018L257.086 442.293C256.764 442.896 256.467 443.544 255.98 444.034C255.151 443.11 254.604 441.902 254.004 440.82L234.864 404.077C234.651 403.661 234.524 403.106 234.252 402.75L215.19 402.873C215.348 403.122 215.395 403.512 215.491 403.796L226.097 437.084L232.906 457.545C233.452 459.168 233.418 459.844 233.42 461.551L233.418 484.492C233.418 485.783 233.414 486.935 233.742 488.195C234.68 491.803 238.289 493.98 241.892 493.786Z" fill="#83C5BE"/>
<path d="M364.594 505.585C360.775 505.585 326.852 505.647 326.733 505.568C326.94 505.228 326.991 504.716 327.108 504.324L334.579 479.5L347.099 441.008C348.17 437.641 348.882 436.166 348.875 432.649L348.887 408.756C349.333 399.299 357.293 391.172 366.633 389.954C372.695 389.164 379.935 391.475 384.064 396.144C387.98 392.38 392.121 390.242 397.501 389.839C398.488 389.838 399.479 389.813 400.464 389.903C410.128 390.788 417.834 398.282 419.07 407.844C419.209 408.913 419.155 410.034 419.156 411.111L419.15 432.877C419.15 433.76 419.018 434.985 419.309 435.813L441.316 505.559L364.594 505.585ZM398.108 402.214C392.887 402.622 390.362 406.25 390.348 411.115L390.347 424.862C390.333 432.096 380.634 434.195 377.958 427.356L377.829 427.012C377.594 426.376 377.613 425.709 377.611 425.041L377.618 410.584C377.616 409.99 377.654 409.301 377.517 408.725C376.36 403.85 371.253 400.948 366.481 402.68C361.891 404.346 361.451 408.235 361.452 412.316L361.458 434.342C361.46 435.261 361.553 436.283 361.224 437.158L357.065 450.542L351.663 466.485L343.623 492.335C343.54 492.632 343.52 492.96 343.37 493.23L361.563 493.253L368.942 479.982L382.914 453.707C383.236 453.104 383.533 452.456 384.02 451.966C384.849 452.89 385.396 454.098 385.996 455.18L405.136 491.923C405.349 492.339 405.476 492.894 405.748 493.25L424.809 493.127C424.652 492.878 424.605 492.489 424.509 492.204L413.903 458.916L407.094 438.455C406.548 436.832 406.582 436.156 406.58 434.449L406.582 411.508C406.582 410.217 406.586 409.065 406.259 407.805C405.32 404.197 401.711 402.02 398.108 402.214Z" fill="#006D77"/>
<path d="M531.406 390.415C535.225 390.415 569.148 390.353 569.267 390.432C569.06 390.772 569.009 391.284 568.892 391.676L561.421 416.5L548.901 454.992C547.83 458.359 547.119 459.834 547.125 463.351L547.113 487.244C546.667 496.701 538.707 504.828 529.367 506.046C523.304 506.836 516.065 504.525 511.936 499.856C508.02 503.62 503.879 505.758 498.499 506.161C497.512 506.162 496.521 506.187 495.536 506.097C485.872 505.212 478.166 497.718 476.93 488.156C476.791 487.087 476.845 485.966 476.844 484.889L476.85 463.123C476.85 462.24 476.982 461.015 476.691 460.187L454.684 390.441L531.406 390.415ZM497.892 493.786C503.113 493.378 505.638 489.75 505.652 484.885L505.653 471.138C505.667 463.904 515.366 461.805 518.042 468.644L518.17 468.988C518.406 469.624 518.386 470.291 518.389 470.959L518.382 485.416C518.384 486.01 518.346 486.699 518.483 487.275C519.64 492.15 524.747 495.052 529.519 493.321C534.109 491.654 534.549 487.765 534.548 483.684L534.542 461.658C534.54 460.739 534.447 459.717 534.776 458.842L538.935 445.458L544.337 429.515L552.377 403.665C552.46 403.368 552.48 403.04 552.63 402.77L534.437 402.747L527.058 416.018L513.086 442.293C512.764 442.896 512.467 443.544 511.98 444.034C511.151 443.11 510.604 441.902 510.004 440.82L490.864 404.077C490.651 403.661 490.524 403.106 490.252 402.75L471.19 402.873C471.348 403.122 471.395 403.512 471.491 403.796L482.097 437.084L488.906 457.545C489.452 459.168 489.418 459.844 489.42 461.551L489.418 484.492C489.418 485.783 489.414 486.935 489.741 488.195C490.68 491.803 494.289 493.98 497.892 493.786Z" fill="#83C5BE"/>
</g>
<defs>
<clipPath id="clip0_4_4">
<rect width="512" height="512" fill="white"/>
</clipPath>
</defs>
</svg>
