<svg id="Capa_1" data-name="Capa 1" xmlns="http://www.w3.org/2000/svg" viewBox="0 0 800 800"><defs><style>.cls-1{fill:#fff;}</style></defs><title>menuArtboard 1 copy</title><path class="cls-1" d="M595,512l97.9-383.32H800V68.42H646.1L623,158.78,0,158.34,66.24,512Zm12.64-293L548.2,451.74H116.25L72.59,218.64Z"/><path class="cls-1" d="M512.52,731.58a96.36,96.36,0,0,0,0-192.71h-363a96.35,96.35,0,1,0,89.33,60.25H423.19a96.36,96.36,0,0,0,89.33,132.46ZM185.6,635.22a36.11,36.11,0,1,1-36.1-36.1A36.15,36.15,0,0,1,185.6,635.22Zm363,0a36.1,36.1,0,1,1-36.1-36.1A36.14,36.14,0,0,1,548.62,635.22Z"/></svg>